<?xml version="1.0" standalone="no"?>
<!DOCTYPE svg PUBLIC "-//W3C//DTD SVG 20010904//EN"
 "http://www.w3.org/TR/2001/REC-SVG-20010904/DTD/svg10.dtd">
<svg version="1.0" xmlns="http://www.w3.org/2000/svg"
 width="270.000000pt" height="270.000000pt" viewBox="0 0 270.000000 270.000000"
 preserveAspectRatio="xMidYMid meet">
<metadata>
Created by potrace 1.14, written by Peter Selinger 2001-2017
</metadata>
<g transform="translate(0.000000,270.000000) scale(0.100000,-0.100000)"
fill="#000000" stroke="none">
<path d="M515 2663 c-89 -20 -312 -132 -365 -183 -20 -19 -49 -57 -64 -85 -27
-48 -28 -49 -3 -20 l25 29 83 -23 c176 -51 288 -92 409 -152 69 -34 143 -68
164 -75 22 -8 45 -19 53 -25 7 -6 20 -8 30 -5 9 4 40 1 70 -5 39 -9 50 -15 43
-24 -7 -9 -5 -16 5 -25 14 -11 17 -10 22 8 4 18 13 22 42 22 57 0 81 -10 81
-33 0 -29 13 -13 16 20 4 35 -30 211 -50 255 -7 18 -35 58 -61 88 -26 30 -58
72 -71 92 -13 21 -36 45 -51 55 -16 9 -54 34 -87 55 l-58 38 -107 -1 c-58 -1
-115 -3 -126 -6z m45 -23 c13 0 17 -5 13 -20 -6 -24 -23 -27 -23 -4 0 11 -5
14 -17 9 -22 -8 -22 -8 -53 -5 -25 2 -25 2 5 15 17 8 36 12 43 10 8 -3 22 -5
32 -5z m85 0 c-3 -5 -13 -10 -21 -10 -8 0 -14 5 -14 10 0 6 9 10 21 10 11 0
17 -4 14 -10z m-220 -30 c3 -5 1 -10 -4 -10 -6 0 -11 5 -11 10 0 6 2 10 4 10
3 0 8 -4 11 -10z m190 -30 c10 -11 15 -20 11 -20 -14 0 -46 21 -46 30 0 16 16
11 35 -10z m-36 -15 c31 -18 47 -22 56 -15 9 7 16 6 25 -5 24 -29 1 -28 -72 0
-81 32 -102 45 -72 45 10 0 39 -12 63 -25z m271 14 c0 -6 6 -9 14 -6 8 3 19 0
25 -7 9 -10 7 -15 -9 -19 -11 -3 -23 -1 -26 4 -9 15 -24 10 -25 -8 0 -15 -2
-15 -9 2 -14 33 -11 45 10 45 11 0 20 -5 20 -11z m-316 -34 c11 -8 16 -15 10
-15 -5 0 -18 7 -28 15 -11 8 -16 15 -10 15 5 0 18 -7 28 -15z m181 -45 c3 -5
-1 -10 -9 -10 -9 0 -16 5 -16 10 0 6 4 10 9 10 6 0 13 -4 16 -10z m-196 -30
c35 -17 62 -33 59 -35 -4 -4 -147 51 -157 60 -15 16 44 0 98 -25z m-156 3 c4
-2 7 -9 7 -15 0 -15 -65 -3 -92 17 -22 16 -21 17 27 10 28 -4 53 -9 58 -12z
m437 -62 c45 -33 46 -41 2 -17 -15 8 -48 24 -75 36 -26 12 -45 26 -41 31 7 12
61 -12 114 -50z m-15 -72 c5 -5 7 -9 4 -9 -9 0 -89 40 -89 45 0 6 73 -25 85
-36z m-250 12 c49 -20 82 -37 105 -54 l25 -19 -25 7 c-26 8 -161 73 -170 82
-6 6 34 -4 65 -16z m115 -5 c0 -2 -9 -2 -20 1 -11 3 -20 9 -20 15 0 5 9 4 20
-2 11 -6 20 -12 20 -14z m387 -62 c-3 -3 -12 -4 -19 -1 -8 3 -5 6 6 6 11 1 17
-2 13 -5z m-197 -64 c8 -5 11 -10 5 -10 -5 0 -17 5 -25 10 -8 5 -10 10 -5 10
6 0 17 -5 25 -10z m93 -67 c-7 -2 -19 -2 -25 0 -7 3 -2 5 12 5 14 0 19 -2 13
-5z m74 -9 c-3 -3 -12 -4 -19 -1 -8 3 -5 6 6 6 11 1 17 -2 13 -5z"/>
<path d="M36 2264 c-3 -26 -4 -49 -2 -52 3 -2 8 17 11 43 4 25 5 48 3 51 -3 2
-8 -17 -12 -42z"/>
<path d="M2010 2241 c0 -11 -4 -23 -10 -26 -12 -7 -14 -55 -2 -55 4 0 7 -16 8
-35 0 -20 6 -41 13 -48 11 -10 12 -5 7 28 -5 29 -4 36 4 25 7 -11 8 -1 4 35
l-5 50 20 -24 c12 -13 21 -33 21 -45 0 -11 7 -43 15 -71 l14 -50 -4 60 c-2 33
-7 72 -11 88 -9 38 10 34 36 -8 25 -41 30 -43 30 -12 0 12 -16 39 -36 60 -30
32 -38 36 -51 26 -12 -11 -17 -10 -24 4 -13 23 -29 22 -29 -2z"/>
<path d="M2266 2218 c-10 -26 -19 -38 -24 -32 -4 7 -8 -25 -10 -71 -2 -66 1
-84 13 -89 20 -7 20 -66 1 -66 -43 0 -46 7 -46 131 0 65 -3 119 -8 119 -4 0
-6 -50 -4 -111 3 -71 0 -115 -7 -122 -7 -7 -12 -6 -15 4 -2 8 -8 23 -12 34 -7
18 -8 17 -12 -7 -2 -22 -9 -28 -28 -28 -17 0 -24 5 -24 20 0 11 -4 20 -10 20
-5 0 -10 -12 -10 -27 -1 -26 -2 -26 -20 12 l-20 40 6 -38 c5 -31 2 -42 -17
-63 -25 -27 -51 -31 -68 -11 -17 21 -91 41 -104 28 -6 -6 -21 -11 -34 -11 -13
0 -23 -3 -23 -7 0 -5 30 -9 67 -11 37 -1 72 -7 78 -13 7 -8 -9 -10 -57 -7 -62
3 -67 2 -62 -16 3 -10 0 -30 -7 -44 -11 -20 -11 -26 -1 -29 6 -3 12 -11 12
-19 0 -18 36 -18 47 -1 10 17 93 29 112 18 11 -7 8 -13 -13 -26 -31 -21 -29
-29 4 -17 14 5 37 4 59 -4 l36 -12 -1 -102 c-1 -87 1 -100 14 -95 8 3 19 0 23
-6 4 -6 12 -8 18 -5 16 10 14 36 -3 36 -16 0 -24 25 -32 96 -6 56 9 81 31 51
10 -14 14 -15 33 -2 11 9 23 11 26 6 3 -4 17 -6 31 -3 18 3 25 0 25 -11 0 -9
5 -19 10 -22 7 -4 9 2 4 19 -6 27 8 36 23 14 13 -20 33 -82 28 -87 -3 -2 -11
2 -20 9 -13 10 -15 9 -15 -9 0 -28 -8 -27 -42 6 l-28 27 0 -28 c0 -21 -4 -27
-15 -23 -8 4 -17 2 -20 -4 -4 -5 -11 -7 -16 -4 -5 4 -9 -1 -9 -11 0 -12 6 -15
25 -12 14 3 30 -1 36 -8 19 -23 29 -16 23 16 -8 36 -1 37 28 8 14 -14 23 -18
26 -10 5 17 22 15 45 -5 23 -21 24 -28 -14 96 -18 59 -20 76 -10 79 23 8 51
41 51 60 -1 16 -1 16 -11 0 -12 -21 -40 -23 -57 -6 -9 9 -12 5 -12 -19 0 -38
-15 -44 -102 -46 -44 -1 -63 2 -71 14 -7 9 -29 19 -51 23 -21 4 -35 10 -32 13
10 10 -33 35 -52 29 -9 -3 -32 -8 -51 -11 -19 -3 -38 -8 -42 -10 -8 -6 -34 23
-27 30 2 3 28 7 58 11 31 3 61 13 73 25 12 10 30 19 40 19 11 0 35 10 54 21
26 17 43 20 71 15 43 -8 104 -16 147 -19 21 -2 36 -12 50 -34 16 -25 30 -33
77 -42 48 -10 64 -9 90 3 18 8 41 16 50 18 13 2 4 14 -33 46 -42 34 -58 42
-92 42 -27 0 -48 -7 -62 -20 l-22 -20 -25 20 c-33 26 -42 84 -27 175 19 121
21 145 12 145 -6 0 -18 -19 -27 -42z m1 -90 c-3 -7 -5 -2 -5 12 0 14 2 19 5
13 2 -7 2 -19 0 -25z m216 -205 c31 -15 36 -39 10 -46 -45 -12 -90 -5 -118 18
l-30 24 35 15 c36 16 55 14 103 -11z m-586 -39 c-3 -3 -12 -4 -19 -1 -8 3 -5
6 6 6 11 1 17 -2 13 -5z"/>
<path d="M2440 1900 c0 -5 5 -10 10 -10 6 0 10 5 10 10 0 6 -4 10 -10 10 -5 0
-10 -4 -10 -10z"/>
<path d="M2150 2224 c0 -8 5 -12 10 -9 6 3 10 10 10 16 0 5 -4 9 -10 9 -5 0
-10 -7 -10 -16z"/>
<path d="M2202 2229 c2 -7 10 -15 17 -17 8 -3 12 1 9 9 -2 7 -10 15 -17 17 -8
3 -12 -1 -9 -9z"/>
<path d="M126 2179 l19 -21 -39 7 c-26 5 -37 4 -33 -2 4 -6 -3 -13 -15 -17
-14 -3 -26 0 -31 9 -14 26 -27 16 -27 -21 0 -21 4 -33 10 -29 6 4 8 10 5 15
-3 5 -1 11 4 14 5 4 12 2 15 -3 5 -8 32 -4 94 15 21 6 23 4 17 -22 l-6 -29 18
28 c10 15 22 27 27 27 5 0 -8 11 -28 25 -45 30 -55 32 -30 4z"/>
<path d="M220 2141 c0 -6 5 -13 10 -16 6 -3 10 -18 10 -33 0 -19 3 -23 9 -13
5 7 6 22 4 32 -5 16 -1 18 28 14 l34 -5 -35 14 c-42 17 -60 19 -60 7z"/>
<path d="M860 2109 c0 -14 40 -30 55 -22 10 6 5 11 -20 19 -19 6 -35 7 -35 3z"/>
<path d="M142 2069 c2 -7 10 -15 17 -17 8 -3 12 1 9 9 -2 7 -10 15 -17 17 -8
3 -12 -1 -9 -9z"/>
<path d="M1010 2070 c0 -5 6 -10 14 -10 7 0 26 -10 41 -22 l28 -22 -18 27 c-9
15 -21 24 -26 21 -5 -3 -9 0 -9 5 0 6 -7 11 -15 11 -8 0 -15 -4 -15 -10z"/>
<path d="M2062 2050 c0 -14 2 -19 5 -12 2 6 2 18 0 25 -3 6 -5 1 -5 -13z"/>
<path d="M1113 2025 c-10 -10 -9 -16 2 -25 13 -10 15 -8 15 14 0 30 -1 30 -17
11z"/>
<path d="M787 2019 c7 -7 15 -10 18 -7 3 3 -2 9 -12 12 -14 6 -15 5 -6 -5z"/>
<path d="M882 2000 c2 -8 18 -16 34 -17 18 -1 22 0 9 4 -11 3 -26 10 -34 17
-11 9 -13 8 -9 -4z"/>
<path d="M1140 1949 c0 -5 5 -7 10 -4 6 3 10 8 10 11 0 2 -4 4 -10 4 -5 0 -10
-5 -10 -11z"/>
<path d="M0 1909 c0 -5 5 -7 10 -4 5 3 10 8 10 11 0 2 -4 4 -10 4 -5 0 -10 -5
-10 -11z"/>
<path d="M1122 1891 c4 -13 18 -16 19 -4 0 4 -5 9 -11 12 -7 2 -11 -2 -8 -8z"/>
<path d="M0 1860 c0 -13 5 -18 14 -14 8 3 12 12 9 20 -8 21 -23 17 -23 -6z"/>
<path d="M1120 1845 c-14 -16 -10 -18 14 -9 9 3 16 10 16 15 0 14 -16 11 -30
-6z"/>
<path d="M583 1831 c1 -12 7 -21 14 -21 17 0 16 15 -1 30 -12 9 -15 8 -13 -9z"/>
<path d="M533 1809 c14 -8 22 -8 30 0 8 8 3 11 -18 11 -26 -1 -28 -2 -12 -11z"/>
<path d="M1065 1764 c-16 -25 -34 -52 -40 -59 -15 -22 3 -30 23 -12 25 23 42
21 42 -3 0 -11 7 -20 15 -20 19 0 19 14 -1 34 -19 19 -23 67 -6 73 7 3 12 -4
12 -19 0 -12 5 -30 10 -38 9 -13 10 -13 10 0 0 24 -20 90 -28 90 -4 -1 -20
-21 -37 -46z"/>
<path d="M1871 1781 c-14 -4 -26 -11 -28 -18 -5 -15 34 -23 60 -13 18 7 18 9
5 9 -21 1 -24 17 -5 24 17 8 -4 6 -32 -2z"/>
<path d="M55 1743 c9 -37 34 -75 45 -68 4 3 14 0 22 -7 7 -7 22 -20 33 -28 19
-15 19 -15 0 12 -11 15 -23 28 -26 28 -3 0 -19 20 -35 45 -32 51 -50 59 -39
18z"/>
<path d="M2121 1674 c0 -11 3 -14 6 -6 3 7 2 16 -1 19 -3 4 -6 -2 -5 -13z"/>
<path d="M955 1623 c-27 -25 -81 -66 -120 -92 l-70 -46 -170 -3 c-204 -4 -239
4 -344 84 -40 30 -76 52 -79 49 -3 -3 0 -5 7 -5 7 0 10 -4 6 -10 -3 -5 -12 -7
-20 -3 -8 3 -15 1 -15 -4 0 -10 48 -63 57 -63 4 0 2 5 -5 12 -7 7 -12 16 -12
21 0 12 39 -17 58 -44 15 -21 14 -22 -6 -17 -35 10 -11 -23 53 -71 58 -44 61
-50 45 -81 -13 -25 -142 -121 -205 -153 -70 -35 -135 -84 -135 -102 0 -11 14
-5 49 19 26 19 66 44 87 56 132 73 189 116 225 168 21 30 49 20 49 -18 0 -20
-10 -34 -38 -54 -42 -29 -61 -34 -42 -11 20 25 -2 17 -30 -10 -26 -25 -216
-145 -229 -145 -15 0 -73 -69 -69 -81 3 -8 20 2 49 28 41 37 97 73 116 73 4 0
-20 -27 -55 -59 -34 -33 -62 -64 -62 -70 0 -6 19 -49 42 -95 39 -80 41 -86 26
-103 -9 -10 -22 -39 -29 -65 -8 -29 -16 -43 -20 -36 -6 9 -10 7 -15 -6 -4 -11
-2 -21 7 -27 11 -6 8 -20 -19 -73 -28 -57 -56 -161 -39 -146 10 9 87 201 101
251 26 89 35 91 36 9 0 -41 5 -91 10 -110 42 -158 59 -244 60 -298 0 -34 7
-79 15 -99 8 -19 15 -61 15 -92 0 -71 8 -101 27 -101 13 0 14 10 9 61 l-7 61
27 -6 c14 -4 64 -7 110 -7 82 0 84 -1 84 -24 0 -13 4 -27 10 -30 5 -3 10 -16
11 -28 0 -15 2 -17 6 -7 11 29 57 70 80 70 34 0 28 -18 -13 -35 -26 -11 -34
-19 -30 -31 3 -8 6 -18 6 -20 0 -2 5 -4 11 -4 6 0 9 7 5 15 -4 10 7 21 34 35
22 11 40 27 40 35 0 17 12 18 77 6 26 -5 94 -15 151 -21 56 -7 102 -17 102
-22 0 -5 -5 -18 -10 -29 -8 -14 -7 -19 2 -19 21 0 41 55 28 79 -6 11 -15 51
-20 88 -5 38 -16 99 -25 138 -8 38 -15 90 -15 115 -1 25 -5 64 -9 87 -13 70
-3 76 104 63 107 -13 325 -18 325 -7 0 4 27 7 61 7 50 0 68 5 102 29 23 15 61
31 85 34 51 6 57 10 48 33 -5 13 -14 15 -44 9 -45 -8 -51 -13 -32 -25 12 -8
11 -10 -5 -10 -11 0 -38 -12 -60 -25 -25 -16 -55 -25 -80 -25 -77 0 -98 15
-110 81 l-6 34 48 5 c26 2 72 4 101 5 33 0 52 4 52 12 0 19 -21 20 -95 6 -93
-18 -121 -11 -140 34 l-15 36 -92 -7 c-58 -4 -125 -2 -180 5 -78 11 -88 15
-89 33 0 12 -7 44 -14 71 l-13 50 1 -62 c0 -35 -2 -66 -6 -69 -3 -3 -24 -3
-47 1 -34 6 -40 10 -35 25 16 51 -55 167 -95 157 -10 -2 -24 0 -33 4 -10 6
-18 5 -22 -1 -3 -5 -15 -10 -25 -10 -11 0 -26 -12 -35 -29 -8 -16 -20 -31 -26
-33 -19 -6 -13 -71 7 -85 15 -11 15 -13 2 -13 -29 0 -108 36 -216 97 -30 18
-42 21 -42 11 0 -14 94 -73 175 -110 44 -20 70 -23 212 -26 l162 -4 -32 -26
c-45 -37 -46 -40 -44 -99 2 -29 3 -53 2 -53 0 0 -16 5 -35 10 -19 6 -71 15
-116 20 -77 10 -163 33 -302 80 l-63 22 20 22 c25 26 26 39 6 56 -8 7 -15 27
-15 45 0 43 -34 85 -68 85 -15 0 -42 -9 -60 -20 -42 -26 -44 -25 -65 9 l-17
30 82 69 c46 38 94 81 107 96 25 27 55 34 66 16 13 -21 105 -59 169 -71 77
-13 120 -5 224 43 l62 30 30 -25 c50 -43 107 -50 265 -33 82 9 161 23 190 35
28 10 88 29 135 41 78 20 172 51 307 101 29 10 74 19 100 19 27 0 65 4 86 9
35 8 39 7 47 -14 5 -12 11 -76 14 -142 l5 -120 -85 -17 c-47 -10 -103 -24
-126 -32 -22 -8 -47 -14 -54 -14 -22 0 -17 41 5 47 28 7 34 32 15 61 -9 14
-17 44 -18 66 -1 29 -5 41 -16 42 -8 0 -22 4 -32 8 -32 14 -72 2 -86 -26 -7
-15 -21 -30 -32 -33 -30 -9 -35 -43 -11 -69 12 -12 21 -29 21 -37 0 -22 21
-39 46 -39 12 0 35 -7 50 -15 27 -14 18 -15 -123 -15 l-152 0 -3 28 c-2 22 -9
28 -33 30 -16 2 -33 9 -37 15 -5 8 -14 7 -31 -2 -14 -7 -30 -11 -35 -7 -17 10
-42 -23 -42 -55 0 -40 -16 -44 -124 -29 -50 7 -109 14 -131 16 l-40 4 40 -14
c111 -38 248 -43 398 -15 26 5 107 9 180 9 127 1 209 13 302 44 22 8 69 17
105 21 36 4 71 12 78 17 6 6 12 32 12 59 l0 49 58 1 c78 0 262 49 276 72 9 14
7 20 -7 29 -13 7 -17 17 -13 34 11 41 -28 21 -53 -28 -18 -34 -38 -36 -52 -4
-9 20 -7 35 12 81 l23 56 52 -7 c46 -5 60 -2 109 22 32 16 70 44 86 62 23 26
34 31 54 26 32 -8 107 40 98 62 -3 8 0 14 6 14 6 0 11 -5 11 -10 0 -7 6 -7 20
0 11 6 20 15 20 19 0 13 -155 25 -175 14 -11 -7 1 -8 38 -5 44 3 55 1 60 -13
9 -22 -9 -55 -31 -56 -56 -5 -67 -2 -77 19 -5 12 -17 22 -25 22 -9 0 -20 4
-25 9 -6 5 -57 11 -115 13 l-105 3 0 -25 c0 -24 -3 -25 -75 -30 -41 -3 -81 -9
-88 -14 -8 -4 -12 -26 -11 -57 2 -44 4 -49 26 -49 13 0 22 -5 20 -12 -1 -10
13 -12 55 -10 l57 3 -27 -63 c-14 -35 -27 -64 -28 -66 -1 -3 -115 13 -166 24
-22 4 -29 13 -34 41 -6 33 -8 35 -38 29 -17 -4 -76 -14 -131 -22 -55 -8 -152
-32 -215 -54 -63 -21 -144 -46 -180 -55 -36 -9 -96 -28 -135 -42 -75 -28 -145
-40 -296 -49 -108 -7 -115 -5 -200 71 -26 22 -65 53 -88 69 -22 17 -41 36 -41
42 0 14 59 56 123 89 39 20 215 193 235 231 22 43 -3 41 -53 -3z m25 -12 c-12
-24 -90 -91 -104 -91 -6 0 15 25 47 55 63 59 73 66 57 36z m1305 -51 c3 -5 -1
-10 -9 -10 -9 0 -16 5 -16 10 0 6 4 10 9 10 6 0 13 -4 16 -10z m186 -36 c25
-23 24 -40 -5 -56 -13 -7 -41 -25 -62 -39 -45 -30 -103 -35 -143 -14 -25 12
-30 12 -47 -5 -22 -21 -84 -37 -84 -21 0 5 5 13 10 16 16 10 12 28 -5 21 -9
-3 -15 0 -15 9 0 8 -4 15 -9 15 -16 0 -8 39 9 46 8 3 42 8 76 10 65 5 93 -9
80 -41 -4 -10 1 -15 14 -15 12 0 17 -5 14 -14 -7 -18 47 -16 69 2 8 7 21 11
28 10 7 -2 15 6 17 16 3 13 0 17 -9 14 -40 -15 -59 -18 -59 -10 0 5 12 14 27
21 26 12 27 14 9 26 -10 8 -15 19 -11 25 10 16 72 6 96 -16z m-1661 -45 c-14
-10 -47 -31 -75 -45 -68 -35 -87 -54 -79 -76 4 -13 0 -18 -15 -18 -24 0 -27
-15 -8 -34 36 -38 67 -77 67 -85 0 -5 -6 -12 -12 -15 -7 -3 3 -3 23 0 48 7 62
-19 21 -40 -122 -63 -293 -60 -383 6 -25 19 -27 24 -15 36 12 12 24 10 87 -13
53 -20 92 -27 138 -26 35 0 66 3 69 6 3 3 -26 5 -65 5 -46 0 -85 6 -114 19
-24 10 -52 21 -63 25 -17 6 -17 8 8 31 24 23 26 30 26 115 l0 90 88 0 c97 0
118 -8 109 -39 -7 -29 1 -26 13 4 5 14 16 25 25 25 13 0 13 -3 3 -20 -7 -10
-9 -22 -6 -26 11 -10 28 6 28 25 0 14 10 20 38 25 21 3 54 16 73 29 40 28 55
25 19 -4z m-400 -59 c0 -22 -3 -40 -6 -40 -3 0 -19 9 -35 21 l-30 21 22 19
c35 30 49 24 49 -21z m350 -10 c-14 -10 -27 -17 -29 -14 -6 5 31 33 44 33 6 1
-1 -8 -15 -19z m1343 -166 c36 -7 34 -21 -5 -33 -30 -8 -31 -9 -7 -10 33 -1
71 -27 49 -34 -40 -13 -68 -16 -102 -10 -34 5 -38 9 -46 47 -5 22 -7 45 -4 49
4 8 42 4 115 -9z m204 -30 c-3 -3 -12 -4 -19 -1 -8 3 -5 6 6 6 11 1 17 -2 13
-5z m-52 -14 c-3 -5 -10 -10 -16 -10 -5 0 -9 5 -9 10 0 6 7 10 16 10 8 0 12
-4 9 -10z m-45 -10 c0 -5 -5 -10 -11 -10 -5 0 -7 5 -4 10 3 6 8 10 11 10 2 0
4 -4 4 -10z m-580 -120 c-6 -11 -16 -20 -22 -20 -6 0 -3 9 7 20 10 11 20 20
22 20 2 0 -1 -9 -7 -20z m-1437 -227 c9 -9 -13 -34 -24 -27 -14 8 -11 34 4 34
8 0 17 -3 20 -7z m737 -47 c0 -3 -4 -8 -10 -11 -5 -3 -10 -1 -10 4 0 6 5 11
10 11 6 0 10 -2 10 -4z m333 -30 c9 -13 19 -37 23 -52 4 -16 18 -53 30 -83 13
-29 24 -55 24 -57 0 -6 -191 8 -291 22 -58 8 -112 14 -119 12 -7 -2 -15 3 -17
10 -3 7 5 12 21 12 42 0 85 57 57 74 -5 3 -11 22 -13 41 l-4 35 96 -6 c52 -3
109 -1 125 5 45 14 51 13 68 -13z m-1078 5 c3 -5 48 -24 101 -41 53 -18 108
-39 123 -46 14 -8 33 -14 41 -14 8 0 47 -11 87 -24 50 -17 84 -23 112 -19 44
6 47 3 30 -29 -9 -16 -7 -26 10 -49 12 -15 21 -35 21 -43 0 -21 27 -32 82 -31
71 1 105 39 76 85 -15 23 -6 34 20 26 17 -6 20 -20 26 -111 4 -58 15 -146 25
-197 30 -148 34 -188 19 -188 -40 0 -270 30 -279 36 -7 4 -87 8 -178 10 -196
3 -227 6 -239 19 -13 15 -35 102 -28 113 3 5 1 32 -5 58 -5 27 -16 83 -24 124
-7 41 -20 91 -28 110 -21 49 -30 122 -23 175 7 43 18 56 31 36z m693 -82 c-2
-6 -8 -10 -13 -10 -5 0 -11 4 -13 10 -2 6 4 11 13 11 9 0 15 -5 13 -11z m-98
-125 c0 -8 -4 -12 -10 -9 -5 3 -10 10 -10 16 0 5 5 9 10 9 6 0 10 -7 10 -16z
m-250 -484 c0 -5 -4 -10 -10 -10 -5 0 -10 5 -10 10 0 6 5 10 10 10 6 0 10 -4
10 -10z"/>
<path d="M366 540 c-17 -19 -25 -39 -26 -66 -1 -83 23 -144 57 -144 7 0 22 -5
32 -12 11 -7 25 -8 37 -2 11 4 32 8 49 9 24 0 34 8 52 40 36 64 36 65 20 83
-9 10 -15 30 -14 46 2 23 -5 31 -41 52 -60 34 -130 32 -166 -6z m108 -99 c3
-5 -1 -11 -9 -15 -15 -6 -29 7 -18 18 9 9 21 8 27 -3z"/>
<path d="M678 351 c-12 -8 -18 -21 -15 -32 3 -11 1 -21 -4 -24 -9 -6 -1 -91
12 -116 5 -9 27 -27 50 -39 34 -17 52 -20 91 -15 60 9 81 28 75 69 -3 22 1 37
14 52 22 24 17 50 -12 57 -10 3 -19 12 -19 20 0 17 -34 32 -49 23 -5 -3 -11 1
-14 9 -8 18 -101 16 -129 -4z m100 -130 c3 -8 -1 -12 -9 -9 -7 2 -15 10 -17
17 -3 8 1 12 9 9 7 -2 15 -10 17 -17z"/>
<path d="M421 1628 c33 -49 49 -58 93 -57 l41 1 -38 8 c-39 7 -54 16 -44 26 3
3 29 -2 56 -11 50 -16 52 -16 86 5 19 12 35 23 35 24 0 2 -26 -1 -57 -7 -42
-7 -58 -7 -61 2 -2 7 -16 9 -38 5 -26 -5 -34 -3 -34 9 0 15 -20 27 -46 27 -12
0 -11 -7 7 -32z"/>
<path d="M369 1313 c-13 -16 -12 -17 4 -4 9 7 17 15 17 17 0 8 -8 3 -21 -13z"/>
<path d="M2116 1053 c-19 -19 -30 -24 -33 -15 -8 20 -30 14 -37 -10 -4 -18 -8
-20 -18 -10 -16 16 -28 15 -28 -3 0 -8 -7 -15 -15 -15 -8 0 -15 -5 -15 -11 0
-7 -7 -17 -16 -23 -14 -11 -14 -17 2 -66 l17 -54 -23 -15 c-13 -9 -35 -26 -48
-38 -15 -14 -43 -24 -78 -29 -56 -7 -77 -20 -49 -30 9 -4 14 -13 11 -20 -3 -7
-1 -16 5 -20 6 -3 8 -12 6 -18 -3 -7 8 -25 24 -40 16 -15 29 -31 29 -34 0 -4
14 -13 31 -21 28 -12 33 -11 60 8 l29 22 1 -23 c1 -21 2 -20 14 7 8 17 14 44
14 60 l0 30 -19 -25 c-30 -38 -63 -70 -68 -65 -3 2 9 20 27 40 34 40 37 45 19
45 -7 0 -24 -16 -38 -35 -24 -33 -40 -44 -40 -27 0 5 15 26 33 47 32 36 33 40
20 66 -13 27 -12 30 24 64 68 64 115 86 174 83 65 -4 94 -34 81 -83 -5 -16
-12 -30 -17 -30 -5 0 -10 -8 -10 -17 -2 -22 -15 -37 -15 -17 0 8 -10 20 -21
28 -20 12 -21 11 -16 -8 3 -12 2 -19 -2 -16 -5 2 -14 -7 -22 -21 -11 -21 -11
-27 1 -34 17 -11 30 -4 30 16 0 8 7 14 16 14 14 0 15 -10 11 -67 -4 -43 -3
-59 3 -43 4 14 8 37 9 53 1 15 11 44 24 65 13 20 26 45 30 55 4 11 17 17 35
17 50 0 92 20 109 54 10 17 16 36 15 42 -1 6 8 10 19 10 12 -1 24 4 26 10 2 7
-16 14 -49 17 -45 5 -61 2 -110 -23 -56 -27 -58 -28 -92 -11 -51 24 -55 54
-20 174 8 26 -17 21 -50 -10z m14 -57 c0 -65 -11 -96 -34 -96 -12 0 -38 -9
-59 -20 -20 -11 -39 -20 -42 -20 -6 0 -35 64 -35 76 0 4 9 -1 20 -11 11 -10
20 -13 20 -7 0 6 7 9 15 6 18 -7 20 17 4 33 -7 7 -8 20 -5 30 7 16 10 14 24
-12 l17 -30 3 25 c6 42 22 47 22 7 0 -20 5 -37 10 -37 6 0 10 13 10 29 0 16 3
36 6 45 11 28 24 17 24 -18z m219 -137 c-6 -12 -20 -19 -39 -19 -15 0 -30 -4
-32 -9 -1 -4 -13 -12 -25 -15 -30 -9 -30 10 -2 40 17 18 26 21 40 13 14 -7 21
-5 29 12 9 16 14 18 25 9 11 -9 12 -17 4 -31z m-452 -115 c-3 -3 -12 -4 -19
-1 -8 3 -5 6 6 6 11 1 17 -2 13 -5z m-37 -53 c0 -12 -29 -35 -36 -28 -11 10 5
37 21 37 8 0 15 -4 15 -9z m22 -33 c-14 -15 -22 -18 -22 -9 0 15 32 43 39 35
3 -3 -5 -14 -17 -26z"/>
<path d="M20 900 c0 -5 7 -10 15 -10 8 0 15 5 15 10 0 6 -7 10 -15 10 -8 0
-15 -4 -15 -10z"/>
<path d="M45 860 c-3 -5 3 -10 14 -10 12 0 21 5 21 10 0 6 -6 10 -14 10 -8 0
-18 -4 -21 -10z"/>
<path d="M16 811 c-12 -14 -16 -32 -14 -67 3 -48 3 -49 17 -24 16 28 32 110
21 110 -4 0 -15 -9 -24 -19z"/>
<path d="M85 800 c4 -6 11 -8 16 -5 14 9 11 15 -7 15 -8 0 -12 -5 -9 -10z"/>
<path d="M2087 794 c-4 -4 -7 -16 -7 -26 0 -10 -4 -18 -10 -18 -5 0 -10 -9
-10 -20 0 -11 -10 -36 -22 -57 -12 -21 -24 -58 -27 -83 -5 -33 -12 -47 -29
-56 -29 -14 -18 -23 26 -20 18 1 35 -1 38 -6 9 -15 24 -8 24 11 0 25 20 38 30
21 4 -7 13 -9 20 -5 7 4 16 2 21 -6 4 -7 11 -10 15 -6 8 8 -13 79 -31 103 -16
22 -45 7 -45 -25 0 -14 -4 -33 -10 -41 -8 -12 -10 -12 -16 3 -9 24 5 107 18
107 5 0 8 6 5 14 -3 8 0 20 7 26 8 6 16 21 18 33 5 28 -5 61 -15 51z m20 -226
c-3 -7 -5 -2 -5 12 0 14 2 19 5 13 2 -7 2 -19 0 -25z"/>
<path d="M2140 790 c0 -5 4 -10 9 -10 6 0 13 5 16 10 3 6 -1 10 -9 10 -9 0
-16 -4 -16 -10z"/>
<path d="M1968 733 c7 -3 16 -2 19 1 4 3 -2 6 -13 5 -11 0 -14 -3 -6 -6z"/>
<path d="M2001 727 c-13 -17 -5 -27 23 -27 17 0 18 2 6 10 -13 9 -13 11 0 20
13 8 13 10 -1 10 -9 0 -22 -6 -28 -13z"/>
<path d="M1463 698 c-30 -14 -29 -26 3 -38 33 -13 44 -12 21 1 -18 10 -18 12
-1 30 19 21 11 23 -23 7z"/>
<path d="M1 624 c0 -11 3 -14 6 -6 3 7 2 16 -1 19 -3 4 -6 -2 -5 -13z"/>
<path d="M1656 535 c7 -33 24 -58 24 -34 -1 7 -7 25 -15 39 l-15 25 6 -30z"/>
<path d="M1783 552 c-15 -9 -56 -123 -47 -131 7 -8 24 20 24 42 0 10 9 36 20
57 22 43 22 44 3 32z"/>
<path d="M2261 483 c-1 -7 -12 -29 -26 -49 -13 -20 -27 -52 -31 -70 -8 -43
-22 -39 -50 14 -25 46 -54 80 -54 62 0 -7 9 -23 20 -37 36 -46 20 -103 -30
-103 -37 0 -61 -34 -59 -81 0 -19 -5 -49 -12 -67 -13 -30 -12 -34 13 -59 19
-19 42 -28 80 -33 72 -10 84 -2 87 56 2 71 47 125 65 78 8 -21 8 -21 -13 -27
-13 -3 -20 -16 -23 -42 l-4 -38 34 38 c27 30 33 42 27 63 -4 15 -6 44 -6 66 2
57 -7 76 -35 76 -24 0 -25 3 -19 33 4 17 16 49 27 70 10 21 17 44 14 50 -3 9
-5 9 -5 0z m-77 -253 c7 -97 -2 -148 -24 -135 -14 9 -33 116 -27 162 4 41 21
73 37 73 4 0 10 -45 14 -100z m83 60 c5 -25 -34 -80 -52 -74 -22 9 -20 70 3
83 23 14 46 9 49 -9z m-153 -16 c11 -29 6 -75 -8 -80 -20 -8 -53 12 -61 36 -6
20 8 42 35 53 24 9 27 8 34 -9z m-12 -100 c10 -3 22 -23 28 -43 8 -29 7 -38
-6 -48 -27 -20 -94 13 -94 46 0 24 30 63 43 57 7 -4 20 -9 29 -12z"/>
<path d="M2230 274 c0 -17 22 -14 28 4 2 7 -3 12 -12 12 -9 0 -16 -7 -16 -16z"/>
<path d="M2060 250 c0 -5 5 -10 10 -10 6 0 10 5 10 10 0 6 -4 10 -10 10 -5 0
-10 -4 -10 -10z"/>
<path d="M2060 140 c0 -13 5 -20 13 -17 6 2 12 10 12 17 0 7 -6 15 -12 18 -8
2 -13 -5 -13 -18z"/>
<path d="M1536 457 c-16 -11 -18 -21 -12 -56 3 -23 11 -50 16 -59 5 -9 27 -55
50 -102 22 -47 45 -92 51 -101 10 -13 7 -22 -10 -46 -28 -37 -26 -86 4 -91 16
-3 18 -1 8 9 -30 31 1 89 48 89 18 0 39 -40 39 -75 0 -18 5 -25 20 -25 18 0
18 2 5 41 -8 23 -15 52 -15 65 0 13 -4 24 -8 24 -14 0 -32 97 -32 171 0 97 21
94 49 -8 l21 -78 -4 64 c-4 62 -4 64 36 107 22 24 47 44 54 44 8 0 14 5 14 10
0 22 -25 8 -69 -37 -29 -31 -46 -42 -49 -34 -8 24 -41 51 -63 51 -11 0 -28 9
-37 21 -22 26 -90 36 -116 16z m125 -48 c22 -23 26 -35 20 -52 -5 -13 -3 -63
4 -117 6 -52 11 -97 9 -99 -8 -10 -35 24 -31 40 3 12 0 15 -14 12 -37 -10
-122 210 -92 240 3 4 22 7 41 7 25 0 41 -8 63 -31z"/>
<path d="M1600 425 c0 -6 7 -30 16 -54 8 -25 13 -55 9 -68 -3 -13 -1 -23 5
-23 21 0 23 33 5 84 -17 49 -35 81 -35 61z"/>
<path d="M2533 430 l20 -41 -24 -25 -23 -24 -26 42 c-15 24 -39 49 -54 57 -23
13 -28 13 -43 -1 -14 -15 -14 -24 -1 -100 13 -71 14 -87 2 -110 -34 -65 -8
-123 75 -166 83 -43 137 -44 186 -1 19 17 35 36 35 43 0 6 -5 3 -11 -7 -12
-21 -29 -22 -29 -2 0 17 -26 20 -36 4 -3 -6 -1 -15 7 -19 19 -12 -7 -40 -37
-40 -26 0 -30 10 -15 38 5 9 12 25 15 35 3 9 15 17 26 17 23 0 68 26 87 50 7
8 12 29 12 45 l0 30 -20 -37 c-20 -40 -88 -87 -75 -53 3 9 6 30 6 47 0 30 1
31 19 14 25 -23 41 -13 41 24 0 24 -5 31 -27 36 l-26 7 27 24 c15 12 34 23 42
23 8 0 14 5 14 10 0 14 -6 13 -42 -6 l-31 -16 5 44 c3 23 9 51 13 61 4 10 3
17 -5 17 -6 0 -17 -13 -23 -30 -15 -40 -32 -38 -63 10 -34 52 -47 52 -21 0z
m-86 -22 c13 -12 23 -28 23 -36 0 -8 8 -27 17 -43 16 -27 16 -31 0 -58 -9 -16
-17 -39 -17 -50 0 -34 -25 -24 -42 17 -17 41 -40 171 -32 184 9 14 27 9 51
-14z m154 -65 c14 -38 2 -124 -29 -203 -22 -58 -50 -105 -58 -97 -2 1 -8 42
-14 90 -10 81 -9 91 12 139 43 103 69 123 89 71z m-159 -156 c22 -28 34 -73
29 -110 -1 -8 -52 22 -63 38 -10 13 -10 105 0 105 4 0 19 -15 34 -33z"/>
<path d="M2426 342 c-2 -4 -1 -14 4 -22 7 -11 12 -12 21 -3 6 6 8 16 5 22 -8
13 -23 14 -30 3z"/>
<path d="M2430 150 c0 -5 5 -10 10 -10 6 0 10 5 10 10 0 6 -4 10 -10 10 -5 0
-10 -4 -10 -10z"/>
<path d="M1910 400 c-1 -3 -2 -41 -3 -85 -2 -59 -9 -93 -26 -130 -42 -90 -81
-131 -81 -86 0 11 -4 23 -10 26 -12 7 -12 -20 -1 -85 8 -45 13 -42 25 12 4 17
18 34 36 43 17 9 28 20 24 26 -3 5 -1 15 4 22 40 48 67 208 42 247 -5 8 -10
13 -10 10z"/>
<path d="M1843 326 c-11 -52 -7 -132 6 -141 4 -2 7 41 8 96 0 54 -1 99 -1 99
-1 0 -7 -24 -13 -54z"/>
<path d="M1904 92 c5 -15 1 -33 -14 -57 -12 -19 -18 -35 -13 -35 9 0 30 31 43
65 7 17 5 27 -7 37 -14 11 -15 10 -9 -10z"/>
</g>
</svg>
