<svg width="800" height="400" viewBox="0 0 800 400" xmlns="http://www.w3.org/2000/svg">
  <defs>
    <linearGradient id="bgGradient" x1="0%" y1="0%" x2="100%" y2="100%">
      <stop offset="0%" style="stop-color:#1e3a8a;stop-opacity:1" />
      <stop offset="100%" style="stop-color:#3b82f6;stop-opacity:1" />
    </linearGradient>
    <linearGradient id="cardGradient" x1="0%" y1="0%" x2="100%" y2="100%">
      <stop offset="0%" style="stop-color:#ffffff;stop-opacity:0.95" />
      <stop offset="100%" style="stop-color:#f8fafc;stop-opacity:0.9" />
    </linearGradient>
  </defs>
  
  <!-- Background -->
  <rect width="800" height="400" fill="url(#bgGradient)"/>
  
  <!-- Grid pattern overlay -->
  <pattern id="grid" width="40" height="40" patternUnits="userSpaceOnUse">
    <path d="M 40 0 L 0 0 0 40" fill="none" stroke="#ffffff" stroke-width="0.5" opacity="0.1"/>
  </pattern>
  <rect width="800" height="400" fill="url(#grid)"/>
  
  <!-- Main Title Area -->
  <rect x="50" y="30" width="700" height="80" rx="12" fill="url(#cardGradient)" opacity="0.9"/>
  <text x="400" y="55" font-family="Arial, sans-serif" font-size="24" font-weight="bold" text-anchor="middle" fill="#1e3a8a">TNS PTA: Technical Infrastructure Upgrade</text>
  <text x="400" y="85" font-family="Arial, sans-serif" font-size="16" text-anchor="middle" fill="#475569">Modern Web Architecture + Comprehensive Grant Management System</text>
  
  <!-- Left Panel - Technical Stack -->
  <rect x="50" y="130" width="340" height="220" rx="8" fill="url(#cardGradient)"/>
  <text x="70" y="155" font-family="Arial, sans-serif" font-size="16" font-weight="bold" fill="#1e3a8a">🔧 Technical Modernization</text>
  
  <!-- Tech stack icons and labels -->
  <circle cx="80" cy="180" r="8" fill="#00d8ff"/>
  <text x="100" y="185" font-family="Arial, sans-serif" font-size="12" fill="#334155">Next.js 14 Migration</text>
  
  <circle cx="80" cy="205" r="8" fill="#3178c6"/>
  <text x="100" y="210" font-family="Arial, sans-serif" font-size="12" fill="#334155">TypeScript Error-Free</text>
  
  <circle cx="80" cy="230" r="8" fill="#38bdf8"/>
  <text x="100" y="235" font-family="Arial, sans-serif" font-size="12" fill="#334155">Tailwind CSS Optimized</text>
  
  <circle cx="80" cy="255" r="8" fill="#10b981"/>
  <text x="100" y="260" font-family="Arial, sans-serif" font-size="12" fill="#334155">MDX Content System</text>
  
  <!-- Performance metrics -->
  <rect x="70" y="280" width="300" height="50" rx="4" fill="#f1f5f9"/>
  <text x="80" y="295" font-family="Arial, sans-serif" font-size="10" fill="#64748b">Build Success: 100% ✓</text>
  <text x="200" y="295" font-family="Arial, sans-serif" font-size="10" fill="#64748b">Zero Errors ✓</text>
  <text x="80" y="310" font-family="Arial, sans-serif" font-size="10" fill="#64748b">Lighthouse: 95+ ✓</text>
  <text x="200" y="310" font-family="Arial, sans-serif" font-size="10" fill="#64748b">Production Ready ✓</text>
  
  <!-- Right Panel - Grant System -->
  <rect x="410" y="130" width="340" height="220" rx="8" fill="url(#cardGradient)"/>
  <text x="430" y="155" font-family="Arial, sans-serif" font-size="16" font-weight="bold" fill="#1e3a8a">📋 Grant Management System</text>
  
  <!-- Grant opportunities visualization -->
  <rect x="430" y="170" width="80" height="30" rx="4" fill="#dcfce7"/>
  <text x="470" y="188" font-family="Arial, sans-serif" font-size="10" text-anchor="middle" fill="#166534">60+ Grants</text>
  
  <rect x="520" y="170" width="80" height="30" rx="4" fill="#fef3c7"/>
  <text x="560" y="188" font-family="Arial, sans-serif" font-size="10" text-anchor="middle" fill="#92400e">$75-100K</text>
  
  <rect x="610" y="170" width="80" height="30" rx="4" fill="#dbeafe"/>
  <text x="650" y="188" font-family="Arial, sans-serif" font-size="10" text-anchor="middle" fill="#1d4ed8">Automated</text>
  
  <!-- Feature list -->
  <text x="430" y="225" font-family="Arial, sans-serif" font-size="12" fill="#334155">• Application Tracking Dashboard</text>
  <text x="430" y="245" font-family="Arial, sans-serif" font-size="12" fill="#334155">• Corporate Solicitation Templates</text>
  <text x="430" y="265" font-family="Arial, sans-serif" font-size="12" fill="#334155">• DAF Registration ($15-20K potential)</text>
  <text x="430" y="285" font-family="Arial, sans-serif" font-size="12" fill="#334155">• Manhattan-Specific Opportunities</text>
  
  <!-- ROI indicator -->
  <rect x="430" y="300" width="300" height="35" rx="4" fill="#ecfdf5"/>
  <text x="440" y="315" font-family="Arial, sans-serif" font-size="11" font-weight="bold" fill="#065f46">Projected Annual Impact: $75,000-$100,000</text>
  <text x="440" y="330" font-family="Arial, sans-serif" font-size="10" fill="#059669">ROI: 10-15x investment in technology infrastructure</text>
  
  <!-- Bottom banner -->
  <rect x="50" y="365" width="700" height="25" rx="4" fill="#1f2937" opacity="0.8"/>
  <text x="400" y="380" font-family="Arial, sans-serif" font-size="12" text-anchor="middle" fill="#ffffff">Built with ❤️ by TNS PTA Technology Committee | September 2025</text>
  
  <!-- Decorative elements -->
  <circle cx="700" cy="60" r="3" fill="#fbbf24" opacity="0.7"/>
  <circle cx="720" cy="50" r="2" fill="#f59e0b" opacity="0.7"/>
  <circle cx="680" cy="45" r="2" fill="#eab308" opacity="0.7"/>
  
  <!-- Success indicators -->
  <polygon points="360,140 370,150 385,135" fill="#10b981"/>
  <polygon points="360,280 370,290 385,275" fill="#10b981"/>
</svg>